<svg width="394" height="394" viewBox="0 0 394 394" fill="none" xmlns="http://www.w3.org/2000/svg">
<circle cx="197" cy="197" r="197" fill="white"/>
<path d="M255.183 185.083L215.019 141.866C213.931 140.775 213.059 139.459 212.453 137.997C211.848 136.536 211.523 134.958 211.496 133.358C211.47 131.758 211.744 130.168 212.301 128.684C212.858 127.201 213.687 125.853 214.738 124.721C215.79 123.59 217.043 122.697 218.422 122.098C219.801 121.499 221.278 121.204 222.765 121.233C224.252 121.261 225.718 121.611 227.076 122.262C228.435 122.914 229.658 123.853 230.671 125.024L289.736 188.579C291.809 190.813 292.974 193.842 292.974 197C292.974 200.158 291.809 203.187 289.736 205.421L230.671 268.976C229.658 270.147 228.435 271.086 227.076 271.738C225.718 272.389 224.252 272.739 222.765 272.767C221.278 272.796 219.801 272.501 218.422 271.902C217.043 271.303 215.79 270.411 214.738 269.279C213.687 268.147 212.858 266.799 212.301 265.316C211.744 263.832 211.47 262.242 211.496 260.642C211.523 259.042 211.848 257.464 212.453 256.003C213.059 254.541 213.931 253.225 215.019 252.134L255.183 208.917L112.1 208.917C109.163 208.917 106.346 207.661 104.269 205.426C102.192 203.192 101.026 200.161 101.026 197C101.026 193.84 102.192 190.809 104.269 188.574C106.346 186.339 109.163 185.083 112.1 185.083L255.183 185.083Z" fill="#EA6C98"/>
</svg>
