<svg width="1041" height="214" viewBox="0 0 1041 214" fill="none" xmlns="http://www.w3.org/2000/svg">
<path d="M119.196 103.98C91.938 127.311 62.832 144.405 31.647 155.955C30.954 156.186 30.492 156.186 30.03 156.186C29.106 156.186 28.413 155.724 28.413 154.8C28.413 154.338 28.644 153.876 29.337 153.414C72.534 125.463 113.652 81.573 136.29 47.385C140.217 41.61 141.603 37.452 141.603 34.68C141.603 30.753 139.986 28.212 134.211 23.823C133.287 23.13 132.825 22.668 132.825 21.975C132.825 21.513 133.287 21.051 134.673 20.589C139.524 18.972 143.22 18.279 146.223 18.279C150.15 18.279 155.463 21.051 164.934 29.367C173.019 36.528 175.791 39.3 175.791 42.996C175.791 45.768 174.636 47.616 172.557 49.464C170.247 51.543 167.475 53.853 163.548 58.704C154.77 69.561 146.685 78.339 139.293 86.193C140.217 86.886 141.141 87.81 142.065 88.503C144.837 90.813 145.53 92.661 145.53 94.278C145.53 95.664 145.299 96.357 144.837 97.743C144.144 100.053 144.144 100.746 144.144 109.293C144.144 135.396 145.299 172.587 145.299 192.222C145.299 204.465 140.217 209.778 133.287 209.778C127.281 209.778 123.354 207.006 119.889 200.076C117.117 194.532 114.576 186.216 114.576 181.827C114.576 179.517 115.5 176.514 116.193 174.435C117.579 170.508 118.503 166.581 118.734 161.037C119.196 144.174 119.196 131.007 119.196 103.98Z" fill="#86CCEE"/>
<rect x="24" width="183" height="16" fill="#86CCEE"/>
<rect x="207" y="13" width="201" height="16" transform="rotate(90 207 13)" fill="#86CCEE"/>
<path d="M345.32 74.336H335.592C323.304 74.336 319.08 74.592 318.44 74.592C317.16 74.592 317.032 74.464 317.032 73.184V62.432C317.032 61.152 317.16 61.024 318.44 61.024C319.08 61.024 323.304 61.28 335.592 61.28H373.224C385.512 61.28 389.736 61.024 390.504 61.024C391.784 61.024 391.912 61.152 391.912 62.432V73.184C391.912 74.464 391.784 74.592 390.504 74.592C389.736 74.592 385.512 74.336 373.224 74.336H359.528V142.688H376.808C389.352 142.688 393.704 142.432 394.472 142.432C395.624 142.432 395.752 142.56 395.752 143.84V154.464C395.752 155.872 395.624 156 394.472 156C393.704 156 389.352 155.744 376.808 155.744H329.96C317.416 155.744 313.064 156 312.296 156C311.016 156 310.888 155.872 310.888 154.464V143.84C310.888 142.56 311.016 142.432 312.296 142.432C313.064 142.432 317.416 142.688 329.96 142.688H345.32V74.336ZM279.656 156.512C282.344 153.312 283.88 151.136 286.312 147.296C290.024 140.256 296.424 128.352 300.52 117.216C302.056 119.008 304.872 121.696 307.432 123.744C309.352 125.28 310.12 125.92 310.12 127.072C310.12 127.712 309.864 128.608 309.352 130.016C305.512 139.232 300.136 150.112 295.656 158.048C294.504 159.968 293.608 161.632 293.352 162.912C293.224 163.936 292.584 164.576 291.816 164.576C291.048 164.576 290.28 164.32 289.384 163.68C286.568 161.888 283.112 159.584 279.656 156.512ZM284.648 58.72L290.536 51.808C291.56 50.528 291.944 50.528 293.096 51.168C299.368 54.752 307.176 60 313.192 64.864C313.704 65.248 313.96 65.632 313.96 65.888C313.96 66.272 313.704 66.656 313.192 67.424L307.304 75.488C306.28 76.768 306.024 76.64 305.128 75.872C299.368 70.624 291.176 64.736 284.648 61.152C284.008 60.768 283.752 60.512 283.752 60.256C283.752 59.872 284.008 59.488 284.648 58.72ZM280.424 92.128L285.672 85.216C286.696 83.936 287.08 84.064 288.232 84.576C294.376 87.392 302.312 92.256 308.328 97.12C308.84 97.632 309.096 97.888 309.096 98.144C309.096 98.528 308.84 98.912 308.328 99.68L302.568 107.872C302.184 108.512 301.928 108.768 301.544 108.768C301.288 108.768 300.904 108.512 300.392 108C294.76 103.008 286.824 97.76 280.424 94.56C279.272 93.92 279.272 93.536 280.424 92.128ZM436.84 75.232H425.704C413.8 75.232 409.704 75.488 408.808 75.488C407.528 75.488 407.4 75.36 407.4 74.08V64.864C407.4 63.584 407.528 63.456 408.808 63.456C409.704 63.456 413.8 63.712 425.704 63.712H436.84C436.712 57.696 436.456 53.728 435.816 49.248C440.552 49.376 444.008 49.632 448.488 50.144C449.768 50.272 450.536 50.784 450.536 51.424C450.536 52.576 450.152 53.344 449.768 54.24C449.128 55.52 449 58.08 449 63.712H457.96C469.992 63.712 474.088 63.456 474.856 63.456C476.136 63.456 476.264 63.584 476.264 64.864V74.08C476.264 75.36 476.136 75.488 474.856 75.488C474.088 75.488 469.992 75.232 457.96 75.232H449V85.088H456.552C468.072 85.088 471.912 84.832 472.808 84.832C474.088 84.832 474.216 84.96 474.216 86.24C474.216 87.136 473.96 89.312 473.96 94.304V99.424C473.96 104.672 474.216 107.232 474.216 110.432C474.216 113.888 473.576 117.088 471.144 119.008C469.608 120.288 467.176 121.184 461.672 121.184C457.576 121.184 457.576 121.056 456.808 117.216C456.296 114.656 455.272 111.84 453.992 109.92C456.04 110.176 457.32 110.304 459.496 110.304C461.544 110.304 462.056 109.792 462.056 107.616V95.968H449V113.248C456.424 125.408 465 132.192 478.184 139.872C475.88 142.432 473.704 145.888 472.424 148.832C471.528 150.752 471.144 151.648 470.376 151.648C469.736 151.648 468.84 151.136 467.56 149.984C459.24 143.072 453.48 136.928 448.616 128.864C448.872 145.504 449.512 162.144 449.512 165.088C449.512 166.368 449.384 166.496 448.104 166.496H437.736C436.456 166.496 436.328 166.368 436.328 165.088C436.328 162.144 436.84 147.296 437.096 131.552C431.976 139.872 425.192 147.168 415.848 154.848C414.568 156 413.672 156.512 413.032 156.512C412.264 156.512 411.752 155.744 410.728 153.824C409.064 150.624 407.016 147.808 404.712 145.632C419.688 136.672 430.568 125.28 436.84 112.096V95.968H424.68V111.456C424.68 117.472 424.936 120.032 424.936 120.8C424.936 122.08 424.808 122.208 423.4 122.208H413.544C412.264 122.208 412.136 122.08 412.136 120.8C412.136 120.032 412.392 117.344 412.392 110.688V96.736C412.392 89.824 412.136 87.136 412.136 86.24C412.136 84.96 412.264 84.832 413.544 84.832C414.44 84.832 418.408 85.088 429.8 85.088H436.84V75.232ZM518.632 69.088V123.232C518.632 132.192 518.888 142.304 518.888 148.704C518.888 154.976 517.992 158.688 514.28 161.248C510.696 163.552 506.984 164.448 495.464 164.448C491.624 164.448 491.624 164.32 490.728 160.352C489.832 156.64 488.424 153.056 486.632 150.624C491.752 151.136 495.336 151.264 500.456 151.264C504.04 151.264 505.576 150.24 505.576 146.144V69.344C505.576 61.024 505.448 57.056 504.552 51.04C509.288 51.168 513.64 51.424 518.12 51.936C519.4 52.064 520.04 52.704 520.04 53.344C520.04 54.496 519.656 55.264 519.4 56.16C518.632 57.696 518.632 60.384 518.632 69.088ZM481.768 114.528V79.328C481.768 70.88 481.768 66.4 481 60.384C485.608 60.512 489.576 60.768 494.056 61.28C495.208 61.408 495.72 61.92 495.72 62.688C495.72 63.584 495.208 64.608 494.952 65.504C494.44 67.296 494.44 69.856 494.44 79.2V114.528C494.44 125.408 494.696 130.656 494.696 131.424C494.696 132.832 494.568 132.96 493.416 132.96H482.92C481.64 132.96 481.512 132.832 481.512 131.424C481.512 130.656 481.768 125.408 481.768 114.528ZM598.76 95.712H586.984C574.44 95.712 570.216 95.968 569.448 95.968C568.04 95.968 567.912 95.84 567.912 94.56V85.088C567.912 83.808 568.04 83.68 569.448 83.68C570.216 83.68 574.44 83.936 586.984 83.936H598.888V69.216H593.128C581.352 69.216 577.256 69.472 576.488 69.472C575.208 69.472 575.08 69.344 575.08 68.064V58.72C575.08 57.312 575.208 57.184 576.488 57.184C577.256 57.184 581.352 57.44 593.128 57.44H624.872C636.776 57.44 641 57.184 641.768 57.184C643.048 57.184 643.176 57.312 643.176 58.72C643.176 59.488 642.92 63.968 642.92 74.592V83.936C648.68 83.936 651.368 83.68 652.008 83.68C653.288 83.68 653.416 83.808 653.416 85.088V94.56C653.416 95.84 653.288 95.968 652.008 95.968C651.368 95.968 648.68 95.84 642.92 95.712V112.48C642.92 122.848 643.176 127.456 643.176 128.224C643.176 129.504 643.048 129.632 641.768 129.632H631.4C630.12 129.632 629.992 129.504 629.992 128.224V122.72H609.896C609.384 125.92 608.744 128.864 607.976 131.68C604.264 144.736 597.352 154.976 584.04 164.064C582.504 165.088 581.608 165.6 580.84 165.6C579.944 165.6 579.304 164.832 578.024 162.912C575.848 159.584 572.904 156.896 570.344 155.488C584.296 148.704 591.336 140.896 595.432 127.456C595.816 126.048 596.328 124.512 596.584 122.72H590.312C579.176 122.72 575.336 122.976 574.568 122.976C573.416 122.976 573.288 122.848 573.288 121.568V112.224C573.288 110.944 573.416 110.816 574.568 110.816C575.336 110.816 579.176 111.072 590.312 111.072H597.992C598.376 106.08 598.632 100.832 598.76 95.712ZM611.176 111.072H629.992V95.712H611.816C611.688 100.96 611.56 106.08 611.176 111.072ZM629.992 69.216H611.816V83.936H629.992V69.216ZM548.968 145.12V115.68C548.968 110.944 549.096 105.312 549.224 99.808C546.536 103.52 543.848 107.104 541.16 110.304C540.136 111.456 539.368 112.096 538.856 112.096C538.216 112.096 537.704 111.456 537.32 109.92C536.168 105.568 534.504 101.472 532.84 98.912C544.232 86.496 551.656 72.672 556.776 57.312C557.8 54.368 558.568 51.296 558.824 48.224C563.048 49.376 567.272 50.656 571.112 52.32C572.52 52.96 573.16 53.344 573.16 54.24C573.16 55.264 572.776 55.776 571.752 56.544C570.856 57.184 570.088 58.848 568.936 62.048C566.888 67.552 564.584 73.056 561.896 78.432V145.12C561.896 157.664 562.152 163.936 562.152 164.576C562.152 165.856 562.024 165.984 560.872 165.984H550.12C548.84 165.984 548.84 165.856 548.84 164.576C548.84 163.808 548.968 157.664 548.968 145.12ZM729.32 98.784H727.784C716.008 98.784 712.168 99.04 711.4 99.04C710.12 99.04 709.992 98.912 709.992 97.632V90.976C709.992 89.696 710.12 89.568 711.4 89.568C711.912 89.568 713.832 89.696 718.44 89.824C717.16 87.008 715.752 84.32 714.344 81.76C713.576 80.608 713.832 80.224 715.368 79.712L721.256 77.792C722.792 77.28 723.176 77.28 723.944 78.432C725.992 81.632 727.912 85.6 729.704 89.824H732.136C732.648 88.032 733.16 86.24 733.544 84.32C733.928 82.144 734.312 78.56 734.44 75.104C738.408 75.488 741.48 75.872 744.936 76.64C746.216 76.896 747.112 77.408 747.112 78.176C747.112 79.2 746.728 79.712 746.088 80.48C745.192 81.76 744.808 83.808 744.424 85.6C743.912 87.264 743.656 88.672 743.272 89.824H750.568C752.104 87.392 753.384 85.088 754.664 82.272C755.56 80.352 756.072 78.688 756.456 76.896C760.04 77.664 763.112 78.432 766.568 79.584C767.464 79.84 767.976 80.224 767.976 80.864C767.976 81.504 767.464 82.016 766.824 82.528C766.056 83.04 765.544 83.808 765.032 84.704C764.008 86.496 762.984 88.16 761.704 89.824C769.384 89.824 772.328 89.568 772.968 89.568C774.248 89.568 774.376 89.696 774.376 90.976V97.632C774.376 98.912 774.248 99.04 772.968 99.04C772.2 99.04 768.232 98.784 756.584 98.784H754.92C756.072 101.344 757.608 103.776 759.144 106.08H760.552C772.712 106.08 776.808 105.824 777.704 105.824C778.856 105.824 778.984 105.952 778.984 107.232V114.144C778.984 115.424 778.856 115.552 777.704 115.552C776.936 115.552 773.992 115.424 766.44 115.296C770.536 119.648 775.528 123.488 781.544 127.072C780.008 128.864 778.344 131.424 777.192 134.112C776.296 136.16 775.784 137.056 775.016 137.056C774.376 137.056 773.608 136.416 772.2 135.392C763.88 128.992 757.736 122.592 753 115.296H732.904C728.552 121.824 719.848 130.144 713.192 134.88C711.784 135.904 710.888 136.544 710.248 136.544C709.48 136.544 708.968 135.776 707.816 133.856C706.664 132.064 705.256 130.144 703.848 128.736V136.416C703.848 141.92 704.104 148.32 704.104 153.056C704.104 157.792 703.336 160.864 700.776 162.912C698.728 164.448 695.144 165.344 689.64 165.344C685.672 165.344 685.672 165.216 684.904 161.376C684.392 158.56 683.368 156.128 681.96 153.696C685.032 153.952 686.696 154.08 688.872 154.08C691.944 154.08 692.84 153.184 692.84 150.24V134.112H680.296C679.144 147.296 676.84 155.36 673 163.296C672.232 164.96 671.592 165.728 670.952 165.728C670.312 165.728 669.672 165.088 668.52 163.808C666.216 161.12 664.04 159.2 661.608 157.92C667.624 146.784 670.184 136.928 670.184 105.312V94.432C670.184 85.344 669.928 80.992 669.928 80.096C669.928 78.816 670.056 78.688 671.464 78.688C672.232 78.688 674.536 78.944 681.96 78.944H692.2C699.624 78.944 701.928 78.688 702.696 78.688C703.976 78.688 704.104 78.816 704.104 80.096C704.104 80.864 703.848 85.344 703.848 94.432V127.2C709.992 123.488 714.984 119.648 719.08 115.296C711.528 115.424 708.712 115.552 708.072 115.552C706.792 115.552 706.664 115.424 706.664 114.144V107.232C706.664 105.952 706.792 105.824 708.072 105.824C708.84 105.824 713.064 106.08 725.224 106.08H725.992C727.272 103.776 728.296 101.344 729.32 98.784ZM680.936 124H692.84V111.584H681.32L680.936 124ZM692.84 89.312H681.32V101.344H692.84V89.312ZM737.64 106.08H747.88C746.856 103.776 745.832 101.344 744.936 98.784H740.456C739.56 101.728 738.664 104.032 737.64 106.08ZM681.96 58.08H696.424C696.424 54.496 696.296 51.68 695.784 48.608C699.88 48.736 704.616 48.992 708.072 49.376C709.224 49.504 709.864 49.888 709.864 50.528C709.864 51.168 709.48 51.68 709.224 52.32C708.84 53.088 708.584 54.624 708.584 58.08H732.776C732.648 54.496 732.52 51.808 732.008 48.608C736.104 48.736 740.84 48.992 744.424 49.376C745.448 49.504 746.088 49.888 746.088 50.528C746.088 51.296 745.704 51.68 745.448 52.448C745.064 53.216 744.808 54.624 744.808 58.08H760.296C771.688 58.08 775.656 57.824 776.424 57.824C777.704 57.824 777.832 57.952 777.832 59.232V67.552C777.832 68.832 777.704 68.96 776.424 68.96C775.656 68.96 771.688 68.704 760.296 68.704H744.808C744.936 70.88 745.064 72.032 745.064 72.416C745.064 73.824 744.936 73.952 743.656 73.952H733.928C732.648 73.952 732.52 73.824 732.52 72.416C732.52 72.032 732.648 70.88 732.648 68.704H708.584C708.584 72.032 708.84 73.696 708.84 74.208C708.84 75.616 708.712 75.744 707.304 75.744H697.704C696.296 75.744 696.168 75.616 696.168 74.208C696.168 73.696 696.296 72.032 696.424 68.704H681.96C670.568 68.704 666.728 68.96 665.96 68.96C664.552 68.96 664.552 68.832 664.552 67.552V59.232C664.552 57.952 664.552 57.824 665.96 57.824C666.728 57.824 670.568 58.08 681.96 58.08ZM747.112 130.4V141.664C747.112 147.168 747.368 150.112 747.368 153.056C747.368 157.408 746.984 160.608 744.04 162.784C741.736 164.576 738.536 165.216 731.112 165.216C727.912 165.216 727.4 165.088 726.888 161.888C726.376 158.56 725.48 156.64 724.456 154.464C727.784 154.72 729.832 154.976 732.264 154.976C734.952 154.976 735.976 154.336 735.976 151.776V131.168C735.976 125.152 735.72 122.208 735.208 119.136C739.816 119.392 743.016 119.648 746.216 120.032C747.624 120.16 748.264 120.672 748.264 121.312C748.264 122.208 748.008 122.592 747.624 123.232C747.24 123.872 747.112 125.792 747.112 130.4ZM753.512 140.64L753.256 140.256C751.592 138.72 749.672 137.184 747.88 135.904C750.184 134.112 751.464 132.704 753.256 130.272C754.536 128.736 755.432 127.456 756.2 125.792C758.504 126.944 762.6 129.76 764.904 131.552C765.544 132.064 765.928 132.576 765.928 133.216C765.928 133.856 765.416 134.24 764.52 134.624C763.496 135.008 762.6 135.648 761.96 136.416C760.552 137.952 759.144 139.232 757.736 140.512C762.728 144.864 768.488 148.832 775.912 152.16C774.248 153.824 772.072 156 770.536 158.304C769.384 159.968 768.872 160.736 767.976 160.736C767.336 160.736 766.568 160.352 765.16 159.456C759.016 155.488 753.512 151.264 748.776 146.272C747.88 145.248 748.008 144.992 749.416 143.84L753.512 140.64ZM719.592 132.064L724.712 128.096C725.352 127.584 725.736 127.328 725.992 127.328C726.376 127.328 726.76 127.584 727.272 128.096C729.32 130.144 731.368 132.448 733.544 135.264C734.44 136.416 734.184 136.672 732.776 137.824L730.856 139.36C731.24 140.64 731.88 142.304 732.392 143.584C733.032 145.248 733.416 146.144 733.416 146.912C733.416 148.064 732.648 148.704 730.6 149.984C726.12 152.8 722.152 155.104 718.568 156.896C716.904 157.792 716.008 158.56 715.368 159.2C714.984 159.712 714.6 160.096 714.088 160.096C713.704 160.096 713.32 159.968 712.68 158.944C711.144 156.128 709.48 152.8 707.944 149.216C710.376 148.576 712.552 147.808 714.6 146.912C718.184 145.248 721.512 143.456 724.84 141.408C722.792 138.592 721.128 136.544 719.08 134.368C718.184 133.472 718.184 133.088 719.592 132.064ZM899.944 104.672V132.704C899.944 140.256 900.328 147.68 900.328 152.032C900.328 156.768 899.432 160.224 896.872 162.4C894.952 164.192 891.496 165.216 882.408 165.472C878.44 165.6 878.44 165.472 878.056 162.4C877.672 159.072 876.776 155.872 874.6 152.8C878.056 153.056 879.464 153.184 882.664 153.184C885.48 153.184 886.76 152.288 886.76 149.6V95.712H863.976V103.136C863.976 105.184 863.976 106.336 864.744 106.848C865.512 107.36 866.28 107.36 868.968 107.36C871.016 107.36 873.064 107.232 874.088 106.336C875.368 105.056 875.496 103.392 875.624 98.016C877.672 99.296 879.848 100.32 882.024 100.832C884.584 101.216 885.096 101.984 884.968 104.672C884.584 110.56 883.048 113.248 880.36 115.168C877.416 117.344 874.728 117.6 866.536 117.6C860.008 117.6 856.936 117.216 855.272 115.936C853.352 114.4 852.328 112.608 852.328 108.64V95.712H842.6C840.808 109.408 833.384 117.6 821.608 122.848C820.328 123.488 819.56 123.872 818.792 123.872C817.768 123.872 816.872 123.104 815.72 121.056C814.44 119.136 812.904 117.344 811.24 115.936V147.936C811.24 158.688 811.496 163.936 811.496 164.576C811.496 165.856 811.368 165.984 810.088 165.984H799.208C797.928 165.984 797.8 165.856 797.8 164.576C797.8 163.808 798.056 158.688 798.056 147.424V103.648C798.056 92.256 797.8 87.136 797.8 86.24C797.8 84.96 797.928 84.832 799.208 84.832C800.104 84.832 804.456 85.088 816.616 85.088H824.296C823.144 82.144 821.736 79.456 820.072 76.768C819.304 75.616 819.688 75.232 821.224 74.72L829.032 72.288C830.696 71.776 831.336 72.288 832.104 73.568C834.024 76.512 836.072 80.48 837.736 85.088H859.88C861.16 82.528 862.312 79.968 863.08 77.664C863.72 76 864.232 74.464 864.488 72.16C868.456 72.8 873.064 73.824 876.904 74.976C877.928 75.36 878.44 75.744 878.44 76.512C878.44 77.408 877.8 78.048 877.16 78.56C876.392 79.2 875.624 80.224 875.112 81.376C874.6 82.528 873.96 83.808 873.192 85.088H881.384C893.672 85.088 898.024 84.832 898.792 84.832C900.072 84.832 900.2 84.96 900.2 86.24C900.2 87.008 899.944 93.024 899.944 104.672ZM830.44 95.712H811.24V114.912C823.528 111.2 829.416 104.672 830.44 95.712ZM835.688 158.304H826.472C825.192 158.304 825.064 158.176 825.064 156.768C825.064 156 825.32 153.44 825.32 139.744V133.216C825.32 126.688 825.064 124 825.064 123.104C825.064 121.824 825.192 121.696 826.472 121.696C827.24 121.696 830.44 121.952 840.296 121.952H857.704C867.56 121.952 870.76 121.696 871.528 121.696C872.808 121.696 872.936 121.824 872.936 123.104C872.936 123.872 872.68 126.432 872.68 131.424V138.72C872.68 151.648 872.936 154.08 872.936 154.848C872.936 156.256 872.808 156.384 871.528 156.384H862.312C861.032 156.384 860.904 156.256 860.904 154.848V152.16H837.096V156.768C837.096 158.176 836.968 158.304 835.688 158.304ZM837.096 131.424V142.688H860.904V131.424H837.096ZM889.192 71.52H809.448C798.056 71.52 794.216 71.776 793.448 71.776C792.296 71.776 792.168 71.648 792.168 70.368V61.536C792.168 60.256 792.296 60.128 793.448 60.128C794.216 60.128 798.056 60.384 809.448 60.384H841.448V59.36C841.448 54.752 841.32 51.552 840.552 48.352C845.288 48.48 849.896 48.736 854.248 49.12C855.528 49.248 856.168 49.76 856.168 50.4C856.168 51.296 855.784 51.936 855.528 52.832C855.016 53.984 854.888 55.52 854.888 59.36V60.384H889.192C900.584 60.384 904.424 60.128 905.192 60.128C906.344 60.128 906.472 60.256 906.472 61.536V70.368C906.472 71.648 906.344 71.776 905.192 71.776C904.424 71.776 900.584 71.52 889.192 71.52ZM956.648 124.128H943.336C931.304 124.128 927.208 124.384 926.44 124.384C925.032 124.384 924.904 124.256 924.904 122.976V113.376C924.904 112.096 925.032 111.968 926.44 111.968C927.208 111.968 931.304 112.224 943.336 112.224H1011.56C1023.59 112.224 1027.69 111.968 1028.46 111.968C1029.86 111.968 1029.99 112.096 1029.99 113.376V122.976C1029.99 124.256 1029.86 124.384 1028.46 124.384C1027.69 124.384 1023.59 124.128 1011.56 124.128H972.008C968.808 132.064 964.968 140.128 960.616 148.192C973.928 147.424 987.88 146.272 1000.04 144.992C997.096 141.408 994.152 137.824 990.696 134.112C989.8 133.088 989.928 132.576 991.464 131.808L999.656 127.584C1001.06 126.816 1001.45 126.944 1002.34 127.84C1011.05 136.928 1018.34 146.144 1026.15 157.536C1026.79 158.56 1026.79 159.072 1025.51 159.968L1016.68 165.728C1015.91 166.24 1015.53 166.496 1015.14 166.496C1014.76 166.496 1014.5 166.24 1014.12 165.6C1011.94 162.016 1009.77 158.688 1007.72 155.616C986.472 158.304 960.36 160.48 938.6 162.144C936.552 162.272 934.888 162.784 933.992 163.296C933.352 163.808 932.712 164.064 931.816 164.064C930.92 164.064 930.28 163.424 930.024 162.272C928.872 158.048 928.104 153.568 927.336 149.088C932.072 149.472 936.296 149.344 941.288 149.088C942.568 149.088 943.976 148.96 945.384 148.96C949.992 140.256 953.704 132.064 956.648 124.128ZM951.528 99.168V89.44C944.36 94.688 936.552 99.296 928.36 103.264C926.824 104.032 925.928 104.416 925.288 104.416C924.392 104.416 924.008 103.52 922.984 101.216C921.448 98.016 919.656 95.2 917.224 92.768C939.496 83.936 956.136 70.368 966.376 55.52C968.552 52.32 969.704 50.144 970.856 47.2C975.848 47.84 980.584 48.736 984.68 49.888C986.216 50.272 986.984 50.784 986.984 51.68C986.984 52.448 986.728 53.216 985.704 53.728C984.936 54.112 984.424 54.496 983.912 54.88C998.376 72.544 1015.66 83.68 1038.06 91.488C1035.62 94.56 1033.96 97.632 1032.55 101.088C1031.66 103.392 1031.27 104.288 1030.38 104.288C1029.74 104.288 1028.84 103.904 1027.43 103.264C1018.73 99.424 1010.41 94.944 1002.98 89.696V99.168C1002.98 100.448 1002.86 100.576 1001.58 100.576C1000.81 100.576 997.352 100.32 987.112 100.32H967.4C957.16 100.32 953.704 100.576 952.936 100.576C951.656 100.576 951.528 100.448 951.528 99.168ZM967.4 88.416H987.112C995.688 88.416 999.528 88.288 1000.94 88.16C991.72 81.504 983.656 73.696 976.744 64.736C969.96 73.696 962.152 81.504 953.32 88.16C954.472 88.288 958.056 88.416 967.4 88.416Z" fill="#333333"/>
</svg>
